<?xml version="1.0" encoding="UTF-8"?>
<svg width="512px" height="512px" viewBox="0 0 512 512" version="1.1" xmlns="http://www.w3.org/2000/svg">
    <title>Offline Image</title>
    <g stroke="none" stroke-width="1" fill="none" fill-rule="evenodd">
        <rect fill="#F3F4F6" x="0" y="0" width="512" height="512"></rect>
        <g transform="translate(128.000000, 128.000000)" fill="#9CA3AF" fill-rule="nonzero">
            <path d="M256,0 L0,0 L0,256 L256,256 L256,0 Z M224,224 L32,224 L32,32 L224,32 L224,224 Z"></path>
            <path d="M80,96 C93.255,96 104,85.255 104,72 C104,58.745 93.255,48 80,48 C66.745,48 56,58.745 56,72 C56,85.255 66.745,96 80,96 Z"></path>
            <path d="M200,160 L168,112 L128,160 L80,96 L56,128 L56,192 L200,192 L200,160 Z"></path>
        </g>
        <g transform="translate(128.000000, 384.000000)" fill="#9CA3AF">
            <rect x="0" y="0" width="256" height="16" rx="8"></rect>
        </g>
        <g transform="translate(160.000000, 416.000000)" fill="#9CA3AF">
            <rect x="0" y="0" width="192" height="16" rx="8"></rect>
        </g>
        <g transform="translate(384.000000, 128.000000)" stroke="#E5E7EB" stroke-width="8">
            <line x1="0" y1="0" x2="0" y2="256" stroke-linecap="round"></line>
        </g>
        <g transform="translate(128.000000, 128.000000)" stroke="#E5E7EB" stroke-width="8">
            <line x1="0" y1="0" x2="0" y2="256" stroke-linecap="round"></line>
        </g>
    </g>
</svg>
